<?xml version="1.0" encoding="UTF-8" standalone="no"?>
<!DOCTYPE svg PUBLIC "-//W3C//DTD SVG 1.1//EN"
 "http://www.w3.org/Graphics/SVG/1.1/DTD/svg11.dtd">
<!-- Generated by graphviz version 2.43.0 (0)
 -->
<!-- Title: %3 Pages: 1 -->
<svg width="428pt" height="98pt"
 viewBox="0.00 0.00 428.37 98.00" xmlns="http://www.w3.org/2000/svg" xmlns:xlink="http://www.w3.org/1999/xlink">
<g id="graph0" class="graph" transform="scale(1 1) rotate(0) translate(4 94)">
<title>%3</title>
<polygon fill="white" stroke="transparent" points="-4,4 -4,-94 424.37,-94 424.37,4 -4,4"/>
<!-- Z -->
<g id="node1" class="node">
<title>Z</title>
<ellipse fill="none" stroke="black" cx="63.69" cy="-72" rx="63.09" ry="18"/>
<text text-anchor="middle" x="63.69" y="-68.3" font-family="Times,serif" font-size="14.00">Z: Assignment</text>
</g>
<!-- S -->
<g id="node2" class="node">
<title>S</title>
<ellipse fill="none" stroke="black" cx="219.93" cy="-72" rx="56.59" ry="18"/>
<text text-anchor="middle" x="219.93" y="-68.3" font-family="Times,serif" font-size="14.00">S: Treatment</text>
</g>
<!-- Z&#45;&gt;S -->
<g id="edge1" class="edge">
<title>Z&#45;&gt;S</title>
<path fill="none" stroke="black" d="M126.98,-72C135.64,-72 144.55,-72 153.26,-72"/>
<polygon fill="black" stroke="black" points="153.37,-75.5 163.37,-72 153.37,-68.5 153.37,-75.5"/>
</g>
<!-- Y -->
<g id="node3" class="node">
<title>Y</title>
<ellipse fill="none" stroke="black" cx="366.42" cy="-72" rx="53.89" ry="18"/>
<text text-anchor="middle" x="366.42" y="-68.3" font-family="Times,serif" font-size="14.00">Y: Outcome</text>
</g>
<!-- S&#45;&gt;Y -->
<g id="edge2" class="edge">
<title>S&#45;&gt;Y</title>
<path fill="none" stroke="black" d="M276.8,-72C285.04,-72 293.58,-72 301.97,-72"/>
<polygon fill="black" stroke="black" points="302.08,-75.5 312.08,-72 302.08,-68.5 302.08,-75.5"/>
</g>
<!-- U -->
<g id="node4" class="node">
<title>U</title>
<ellipse fill="none" stroke="black" cx="63.69" cy="-18" rx="63.89" ry="18"/>
<text text-anchor="middle" x="63.69" y="-14.3" font-family="Times,serif" font-size="14.00">U: Confounder</text>
</g>
<!-- U&#45;&gt;S -->
<g id="edge3" class="edge">
<title>U&#45;&gt;S</title>
<path fill="none" stroke="black" d="M104.41,-31.91C124.93,-39.09 150.1,-47.9 171.61,-55.43"/>
<polygon fill="black" stroke="black" points="170.61,-58.79 181.21,-58.79 172.93,-52.18 170.61,-58.79"/>
</g>
<!-- U&#45;&gt;Y -->
<g id="edge4" class="edge">
<title>U&#45;&gt;Y</title>
<path fill="none" stroke="black" d="M124.94,-22.96C167.57,-27.14 225.92,-34.18 276.48,-45 290.19,-47.93 304.83,-51.98 318.2,-56.06"/>
<polygon fill="black" stroke="black" points="317.55,-59.52 328.14,-59.16 319.63,-52.84 317.55,-59.52"/>
</g>
</g>
</svg>