<?xml version="1.0" encoding="UTF-8" standalone="no"?>
<!DOCTYPE svg PUBLIC "-//W3C//DTD SVG 1.1//EN"
 "http://www.w3.org/Graphics/SVG/1.1/DTD/svg11.dtd">
<!-- Generated by graphviz version 2.43.0 (0)
 -->
<!-- Title: %3 Pages: 1 -->
<svg width="576pt" height="72pt"
 viewBox="0.00 0.00 576.00 71.75" xmlns="http://www.w3.org/2000/svg" xmlns:xlink="http://www.w3.org/1999/xlink">
<g id="graph0" class="graph" transform="scale(1.55 1.55) rotate(0) translate(4 107.31)">
<title>%3</title>
<polygon fill="white" stroke="transparent" points="-4,4 -4,-107.31 889.66,-107.31 889.66,4 -4,4"/>
<!-- Z -->
<g id="node1" class="node">
<title>Z</title>
<ellipse fill="none" stroke="black" cx="146.24" cy="-84.31" rx="79.09" ry="18"/>
<text text-anchor="middle" x="146.24" y="-80.61" font-family="Times,serif" font-size="14.00">Z (Instrument)</text>
</g>
<!-- T -->
<g id="node2" class="node">
<title>T</title>
<ellipse fill="none" stroke="black" cx="542.97" cy="-49.31" rx="75.29" ry="18"/>
<text text-anchor="middle" x="542.97" y="-45.61" font-family="Times,serif" font-size="14.00">T (Treatment)</text>
</g>
<!-- Z&#45;&gt;T -->
<g id="edge1" class="edge">
<title>Z&#45;&gt;T</title>
<path fill="none" stroke="black" d="M220.56,-77.81C289.09,-71.74 391.18,-62.68 461.84,-56.42"/>
<polygon fill="black" stroke="black" points="462.38,-59.89 472.03,-55.52 461.76,-52.91 462.38,-59.89"/>
<text text-anchor="middle" x="379.47" y="-72.11" font-family="Times,serif" font-size="14.00">Assignment Rule</text>
</g>
<!-- Y -->
<g id="node3" class="node">
<title>Y</title>
<ellipse fill="none" stroke="black" cx="818.07" cy="-49.31" rx="67.69" ry="18"/>
<text text-anchor="middle" x="818.07" y="-45.61" font-family="Times,serif" font-size="14.00">Y (Outcome)</text>
</g>
<!-- Z&#45;&gt;Y -->
<g id="edge5" class="edge">
<title>Z&#45;&gt;Y</title>
<path fill="none" stroke="black" stroke-dasharray="5,2" d="M225.28,-86.04C252.27,-86.56 282.7,-87.06 310.47,-87.31 498.21,-89.04 546.72,-95.59 732.47,-68.31 740.82,-67.09 749.57,-65.49 758.15,-63.74"/>
<polygon fill="black" stroke="black" points="759.04,-67.12 768.1,-61.62 757.59,-60.28 759.04,-67.12"/>
<text text-anchor="middle" x="542.97" y="-92.11" font-family="Times,serif" font-size="14.00">Exclusion Restriction</text>
</g>
<!-- T&#45;&gt;Y -->
<g id="edge2" class="edge">
<title>T&#45;&gt;Y</title>
<path fill="none" stroke="black" d="M618.6,-49.31C656.44,-49.31 702.32,-49.31 740.44,-49.31"/>
<polygon fill="black" stroke="black" points="740.46,-52.81 750.46,-49.31 740.46,-45.81 740.46,-52.81"/>
<text text-anchor="middle" x="684.97" y="-53.11" font-family="Times,serif" font-size="14.00">Causal Effect</text>
</g>
<!-- U -->
<g id="node4" class="node">
<title>U</title>
<ellipse fill="none" stroke="black" cx="146.24" cy="-21.31" rx="146.47" ry="18"/>
<text text-anchor="middle" x="146.24" y="-17.61" font-family="Times,serif" font-size="14.00">U (Unobserved Confounders)</text>
</g>
<!-- U&#45;&gt;T -->
<g id="edge3" class="edge">
<title>U&#45;&gt;T</title>
<path fill="none" stroke="black" d="M289.58,-24.94C339.87,-27.01 396.76,-30.25 448.47,-35.31 455.61,-36.01 463.02,-36.88 470.42,-37.84"/>
<polygon fill="black" stroke="black" points="470.1,-41.32 480.47,-39.19 471.03,-34.39 470.1,-41.32"/>
<text text-anchor="middle" x="379.47" y="-39.11" font-family="Times,serif" font-size="14.00">Confounding Effect</text>
</g>
<!-- U&#45;&gt;Y -->
<g id="edge4" class="edge">
<title>U&#45;&gt;Y</title>
<path fill="none" stroke="black" d="M258.24,-9.65C354.13,-1.57 496.3,5.63 619.47,-7.31 667.6,-12.37 721.26,-24.18 760.49,-33.99"/>
<polygon fill="black" stroke="black" points="759.85,-37.44 770.4,-36.5 761.57,-30.65 759.85,-37.44"/>
<text text-anchor="middle" x="542.97" y="-11.11" font-family="Times,serif" font-size="14.00">Confounding Effect</text>
</g>
</g>
</svg>