<?xml version="1.0" encoding="UTF-8" standalone="no"?>
<!DOCTYPE svg PUBLIC "-//W3C//DTD SVG 1.1//EN"
 "http://www.w3.org/Graphics/SVG/1.1/DTD/svg11.dtd">
<!-- Generated by graphviz version 12.2.0 (20241103.1931)
 -->
<!-- Pages: 1 -->
<svg width="576pt" height="82pt"
 viewBox="0.00 0.00 576.00 82.20" xmlns="http://www.w3.org/2000/svg" xmlns:xlink="http://www.w3.org/1999/xlink">
<g id="graph0" class="graph" transform="scale(0.768241 0.768241) rotate(0) translate(4 103)">
<polygon fill="white" stroke="none" points="-4,4 -4,-103 745.76,-103 745.76,4 -4,4"/>
<!-- Z -->
<g id="node1" class="node">
<title>Z</title>
<ellipse fill="none" stroke="black" cx="120.96" cy="-81" rx="65.68" ry="18"/>
<text text-anchor="middle" x="120.96" y="-75.95" font-family="Times,serif" font-size="14.00">Z (Instrument)</text>
</g>
<!-- T -->
<g id="node2" class="node">
<title>T</title>
<ellipse fill="none" stroke="black" cx="449.04" cy="-61" rx="63.12" ry="18"/>
<text text-anchor="middle" x="449.04" y="-55.95" font-family="Times,serif" font-size="14.00">T (Treatment)</text>
</g>
<!-- Z&#45;&gt;T -->
<g id="edge1" class="edge">
<title>Z&#45;&gt;T</title>
<path fill="none" stroke="black" d="M185.6,-77.1C240.05,-73.76 318.41,-68.95 375.32,-65.46"/>
<polygon fill="black" stroke="black" points="375.48,-68.96 385.25,-64.85 375.06,-61.97 375.48,-68.96"/>
<text text-anchor="middle" x="313.91" y="-75.4" font-family="Times,serif" font-size="14.00">Assignment Rule</text>
</g>
<!-- Y -->
<g id="node3" class="node">
<title>Y</title>
<ellipse fill="none" stroke="black" cx="681.71" cy="-24" rx="60.05" ry="18"/>
<text text-anchor="middle" x="681.71" y="-18.95" font-family="Times,serif" font-size="14.00">Y (Outcome)</text>
</g>
<!-- T&#45;&gt;Y -->
<g id="edge2" class="edge">
<title>T&#45;&gt;Y</title>
<path fill="none" stroke="black" d="M504.7,-52.23C538.37,-46.83 581.67,-39.89 616.89,-34.24"/>
<polygon fill="black" stroke="black" points="617.21,-37.73 626.53,-32.69 616.1,-30.82 617.21,-37.73"/>
<text text-anchor="middle" x="566.91" y="-51.18" font-family="Times,serif" font-size="14.00">Causal Effect</text>
</g>
<!-- U -->
<g id="node4" class="node">
<title>U</title>
<ellipse fill="none" stroke="black" cx="120.96" cy="-18" rx="120.96" ry="18"/>
<text text-anchor="middle" x="120.96" y="-12.95" font-family="Times,serif" font-size="14.00">U (Unobserved Confounders)</text>
</g>
<!-- U&#45;&gt;T -->
<g id="edge3" class="edge">
<title>U&#45;&gt;T</title>
<path fill="none" stroke="black" d="M224.51,-27.62C268.74,-32.25 320.98,-38.35 367.91,-45.5 373.78,-46.39 379.87,-47.41 385.95,-48.48"/>
<polygon fill="black" stroke="black" points="384.9,-51.85 395.36,-50.2 386.15,-44.96 384.9,-51.85"/>
<text text-anchor="middle" x="313.91" y="-48.7" font-family="Times,serif" font-size="14.00">Confounding Effect</text>
</g>
<!-- U&#45;&gt;Y -->
<g id="edge4" class="edge">
<title>U&#45;&gt;Y</title>
<path fill="none" stroke="black" d="M241.95,-16.57C319.13,-15.97 421.57,-15.75 512.16,-17.5 544.61,-18.13 580.56,-19.43 610.89,-20.7"/>
<polygon fill="black" stroke="black" points="610.57,-24.19 620.71,-21.13 610.87,-17.2 610.57,-24.19"/>
<text text-anchor="middle" x="449.04" y="-20.7" font-family="Times,serif" font-size="14.00">Confounding Effect</text>
</g>
</g>
</svg>