<?xml version="1.0" encoding="UTF-8" standalone="no"?>
<!DOCTYPE svg PUBLIC "-//W3C//DTD SVG 1.1//EN"
 "http://www.w3.org/Graphics/SVG/1.1/DTD/svg11.dtd">
<!-- Generated by graphviz version 2.43.0 (0)
 -->
<!-- Title: %3 Pages: 1 -->
<svg width="576pt" height="32pt"
 viewBox="0.00 0.00 576.00 31.70" xmlns="http://www.w3.org/2000/svg" xmlns:xlink="http://www.w3.org/1999/xlink">
<g id="graph0" class="graph" transform="scale(1.39 1.39) rotate(0) translate(4 40)">
<title>%3</title>
<polygon fill="white" stroke="transparent" points="-4,4 -4,-40 795.45,-40 795.45,4 -4,4"/>
<!-- Z -->
<g id="node1" class="node">
<title>Z</title>
<ellipse fill="none" stroke="black" cx="77.34" cy="-18" rx="77.19" ry="18"/>
<text text-anchor="middle" x="77.34" y="-14.3" font-family="Times,serif" font-size="14.00">Z: Assignment</text>
</g>
<!-- S -->
<g id="node2" class="node">
<title>S</title>
<ellipse fill="none" stroke="black" cx="391.03" cy="-18" rx="116.18" ry="18"/>
<text text-anchor="middle" x="391.03" y="-14.3" font-family="Times,serif" font-size="14.00">S: Treatment Received</text>
</g>
<!-- Z&#45;&gt;S -->
<g id="edge1" class="edge">
<title>Z&#45;&gt;S</title>
<path fill="none" stroke="black" d="M154.99,-18C187.86,-18 227.13,-18 264.07,-18"/>
<polygon fill="black" stroke="black" points="264.42,-21.5 274.42,-18 264.42,-14.5 264.42,-21.5"/>
<text text-anchor="middle" x="214.69" y="-21.8" font-family="Times,serif" font-size="14.00">Compliance</text>
</g>
<!-- Y -->
<g id="node3" class="node">
<title>Y</title>
<ellipse fill="none" stroke="black" cx="728.41" cy="-18" rx="63.09" ry="18"/>
<text text-anchor="middle" x="728.41" y="-14.3" font-family="Times,serif" font-size="14.00">Y: Outcome</text>
</g>
<!-- S&#45;&gt;Y -->
<g id="edge2" class="edge">
<title>S&#45;&gt;Y</title>
<path fill="none" stroke="black" d="M507.45,-18C556.39,-18 611.93,-18 654.96,-18"/>
<polygon fill="black" stroke="black" points="655.05,-21.5 665.05,-18 655.05,-14.5 655.05,-21.5"/>
<text text-anchor="middle" x="586.37" y="-21.8" font-family="Times,serif" font-size="14.00">Treatment Effect</text>
</g>
</g>
</svg>