<?xml version="1.0" encoding="UTF-8" standalone="no"?>
<!DOCTYPE svg PUBLIC "-//W3C//DTD SVG 1.1//EN"
 "http://www.w3.org/Graphics/SVG/1.1/DTD/svg11.dtd">
<!-- Generated by graphviz version 2.43.0 (0)
 -->
<!-- Title: %3 Pages: 1 -->
<svg width="576pt" height="39pt"
 viewBox="0.00 0.00 576.00 38.50" xmlns="http://www.w3.org/2000/svg" xmlns:xlink="http://www.w3.org/1999/xlink">
<g id="graph0" class="graph" transform="scale(0.88 0.88) rotate(0) translate(4 40)">
<title>%3</title>
<polygon fill="white" stroke="transparent" points="-4,4 -4,-40 654.26,-40 654.26,4 -4,4"/>
<!-- Z -->
<g id="node1" class="node">
<title>Z</title>
<ellipse fill="none" stroke="black" cx="63.04" cy="-18" rx="63.09" ry="18"/>
<text text-anchor="middle" x="63.04" y="-14.3" font-family="Times,serif" font-size="14.00">Z: Assignment</text>
</g>
<!-- S -->
<g id="node2" class="node">
<title>S</title>
<ellipse fill="none" stroke="black" cx="320.73" cy="-18" rx="91.78" ry="18"/>
<text text-anchor="middle" x="320.73" y="-14.3" font-family="Times,serif" font-size="14.00">S: Treatment Received</text>
</g>
<!-- Z&#45;&gt;S -->
<g id="edge1" class="edge">
<title>Z&#45;&gt;S</title>
<path fill="none" stroke="black" d="M126.27,-18C154.01,-18 187.41,-18 218.59,-18"/>
<polygon fill="black" stroke="black" points="218.63,-21.5 228.63,-18 218.63,-14.5 218.63,-21.5"/>
<text text-anchor="middle" x="177.59" y="-21.8" font-family="Times,serif" font-size="14.00">Compliance</text>
</g>
<!-- Y -->
<g id="node3" class="node">
<title>Y</title>
<ellipse fill="none" stroke="black" cx="596.32" cy="-18" rx="53.89" ry="18"/>
<text text-anchor="middle" x="596.32" y="-14.3" font-family="Times,serif" font-size="14.00">Y: Outcome</text>
</g>
<!-- S&#45;&gt;Y -->
<g id="edge2" class="edge">
<title>S&#45;&gt;Y</title>
<path fill="none" stroke="black" d="M412.45,-18C451.67,-18 496.6,-18 532.11,-18"/>
<polygon fill="black" stroke="black" points="532.34,-21.5 542.34,-18 532.34,-14.5 532.34,-21.5"/>
<text text-anchor="middle" x="477.37" y="-21.8" font-family="Times,serif" font-size="14.00">Treatment Effect</text>
</g>
</g>
</svg>