<?xml version="1.0" encoding="UTF-8" standalone="no"?>
<!DOCTYPE svg PUBLIC "-//W3C//DTD SVG 1.1//EN"
 "http://www.w3.org/Graphics/SVG/1.1/DTD/svg11.dtd">
<!-- Generated by graphviz version 2.43.0 (0)
 -->
<!-- Title: %3 Pages: 1 -->
<svg width="505pt" height="98pt"
 viewBox="0.00 0.00 505.06 98.00" xmlns="http://www.w3.org/2000/svg" xmlns:xlink="http://www.w3.org/1999/xlink">
<g id="graph0" class="graph" transform="scale(1 1) rotate(0) translate(4 94)">
<title>%3</title>
<polygon fill="white" stroke="transparent" points="-4,4 -4,-94 501.06,-94 501.06,4 -4,4"/>
<!-- Z -->
<g id="node1" class="node">
<title>Z</title>
<ellipse fill="none" stroke="black" cx="77.99" cy="-72" rx="77.19" ry="18"/>
<text text-anchor="middle" x="77.99" y="-68.3" font-family="Times,serif" font-size="14.00">Z: Assignment</text>
</g>
<!-- S -->
<g id="node2" class="node">
<title>S</title>
<ellipse fill="none" stroke="black" cx="263.48" cy="-72" rx="71.49" ry="18"/>
<text text-anchor="middle" x="263.48" y="-68.3" font-family="Times,serif" font-size="14.00">S: Treatment</text>
</g>
<!-- Z&#45;&gt;S -->
<g id="edge1" class="edge">
<title>Z&#45;&gt;S</title>
<path fill="none" stroke="black" d="M155.48,-72C164.17,-72 173.05,-72 181.8,-72"/>
<polygon fill="black" stroke="black" points="181.98,-75.5 191.98,-72 181.98,-68.5 181.98,-75.5"/>
</g>
<!-- Y -->
<g id="node3" class="node">
<title>Y</title>
<ellipse fill="none" stroke="black" cx="434.02" cy="-72" rx="63.09" ry="18"/>
<text text-anchor="middle" x="434.02" y="-68.3" font-family="Times,serif" font-size="14.00">Y: Outcome</text>
</g>
<!-- S&#45;&gt;Y -->
<g id="edge2" class="edge">
<title>S&#45;&gt;Y</title>
<path fill="none" stroke="black" d="M334.98,-72C343.44,-72 352.1,-72 360.59,-72"/>
<polygon fill="black" stroke="black" points="360.84,-75.5 370.84,-72 360.84,-68.5 360.84,-75.5"/>
</g>
<!-- U -->
<g id="node4" class="node">
<title>U</title>
<ellipse fill="none" stroke="black" cx="77.99" cy="-18" rx="77.99" ry="18"/>
<text text-anchor="middle" x="77.99" y="-14.3" font-family="Times,serif" font-size="14.00">U: Confounder</text>
</g>
<!-- U&#45;&gt;S -->
<g id="edge3" class="edge">
<title>U&#45;&gt;S</title>
<path fill="none" stroke="black" d="M127.2,-32.19C151.48,-39.33 181.05,-48.04 206.35,-55.48"/>
<polygon fill="black" stroke="black" points="205.59,-58.91 216.17,-58.37 207.57,-52.19 205.59,-58.91"/>
</g>
<!-- U&#45;&gt;Y -->
<g id="edge4" class="edge">
<title>U&#45;&gt;Y</title>
<path fill="none" stroke="black" d="M153.39,-22.62C204.73,-26.59 274.38,-33.54 334.97,-45 350.06,-47.85 366.2,-51.88 380.95,-55.96"/>
<polygon fill="black" stroke="black" points="380.33,-59.42 390.9,-58.78 382.23,-52.68 380.33,-59.42"/>
</g>
</g>
</svg>